HIERARCHY
ROOT SpineBase
{
  OFFSET 0.000000 0.000000 0.000000
  CHANNELS 6 Xposition Yposition Zposition Zrotation Xrotation Yrotation
  JOINT SpineMid
  {
    OFFSET 0.000000 31.850784 0.000000
    CHANNELS 3 Zrotation Xrotation Yrotation
    JOINT SpineShoulder
    {
      OFFSET -0.077650 23.747189 -0.896994
      CHANNELS 3 Zrotation Xrotation Yrotation
      JOINT Neck
      {
        OFFSET -0.075582 7.887225 -0.669135
        CHANNELS 3 Zrotation Xrotation Yrotation
        JOINT Head
        {
          OFFSET 6.612342 9.661039 0.716959
          CHANNELS 3 Zrotation Xrotation Yrotation
          End Site
          {
            OFFSET 0 0 0
          }
        }
      }
      JOINT ShoulderLeft
      {
        OFFSET -12.130973 -1.869211 -9.952931
        CHANNELS 3 Zrotation Xrotation Yrotation
        JOINT ElbowLeft
        {
          OFFSET -1.397547 -25.942068 -8.649290
          CHANNELS 3 Zrotation Xrotation Yrotation
          JOINT WristLeft
          {
            OFFSET 9.751759 -19.893195 -9.425572
            CHANNELS 3 Zrotation Xrotation Yrotation
            JOINT HandLeft
            {
              OFFSET 4.798029 -5.010439 -4.252561
              CHANNELS 3 Zrotation Xrotation Yrotation
              JOINT HandTipLeft
              {
                OFFSET 3.270822 -3.958393 -2.171424
                CHANNELS 3 Zrotation Xrotation Yrotation
                End Site
                {
                  OFFSET 0 0 0
                }
              }
              JOINT ThumbLeft
              {
                OFFSET -1.788869 -2.234229 -2.753896
                CHANNELS 3 Zrotation Xrotation Yrotation
                End Site
                {
                  OFFSET 0 0 0
                }
              }
            }
          }
        }
      }
      JOINT ShoulderRight
      {
        OFFSET 14.011977 -5.702385 7.894538
        CHANNELS 3 Zrotation Xrotation Yrotation
        JOINT ElbowRight
        {
          OFFSET 4.492042 -30.245824 5.033266
          CHANNELS 3 Zrotation Xrotation Yrotation
          JOINT WristRight
          {
            OFFSET 2.694146 -22.904278 2.351466
            CHANNELS 3 Zrotation Xrotation Yrotation
            JOINT HandRight
            {
              OFFSET 0.312333 -1.750842 -2.142513
              CHANNELS 3 Zrotation Xrotation Yrotation
              JOINT HandTipRight
              {
                OFFSET 0.844486 -2.660857 -0.128253
                CHANNELS 3 Zrotation Xrotation Yrotation
                End Site
                {
                  OFFSET 0 0 0
                }
              }
              JOINT ThumbRight
              {
                OFFSET -1.098592 0.717144 -2.713356
                CHANNELS 3 Zrotation Xrotation Yrotation
                End Site
                {
                  OFFSET 0 0 0
                }
              }
            }
          }
        }
      }
    }
  }
  JOINT HipLeft
  {
    OFFSET -5.496596 2.413205 -7.712114
    CHANNELS 3 Zrotation Xrotation Yrotation
    JOINT KneeLeft
    {
      OFFSET -6.379262 -31.906893 -3.196244
      CHANNELS 3 Zrotation Xrotation Yrotation
      JOINT AnkleLeft
      {
        OFFSET -0.398225 -35.440532 7.036823
        CHANNELS 3 Zrotation Xrotation Yrotation
        JOINT FootLeft
        {
          OFFSET 5.726728 -2.475394 -12.544027
          CHANNELS 3 Zrotation Xrotation Yrotation
          End Site
          {
            OFFSET 0 0 0
          }
        }
      }
    }
  }
  JOINT HipRight
  {
    OFFSET 4.402784 0.408474 0.084100
    CHANNELS 3 Zrotation Xrotation Yrotation
    JOINT KneeRight
    {
      OFFSET 8.122562 -32.903786 -5.974598
      CHANNELS 3 Zrotation Xrotation Yrotation
      JOINT AnkleRight
      {
        OFFSET -3.685244 -35.721056 4.016684
        CHANNELS 3 Zrotation Xrotation Yrotation
        JOINT FootRight
        {
          OFFSET 1.071431 -3.958514 -8.708800
          CHANNELS 3 Zrotation Xrotation Yrotation
          End Site
          {
            OFFSET 0 0 0
          }
        }
      }
    }
  }
}
MOTION
Frames: 14
Frame Time: 0.033333
44.430756 72.174883 308.584496 -0.000000 0.000000 -38.222048 -0.000000 0.000000 38.222048 -0.000000 0.000000 0.000000 -0.000000 0.000000 0.000000 0.000000 0.000000 0.000000 -0.000000 0.000000 0.000000 -0.000000 0.000000 0.000000 -0.000000 0.000000 0.000000 -0.000000 0.000000 0.000000 0.000000 0.000000 0.000000 0.000000 0.000000 0.000000 -0.000000 0.000000 0.000000 -0.000000 0.000000 0.000000 -0.000000 0.000000 0.000000 -0.000000 0.000000 0.000000 0.000000 0.000000 0.000000 0.000000 0.000000 0.000000 -0.000000 0.000000 38.222048 -0.000000 0.000000 0.000000 -0.000000 0.000000 0.000000 0.000000 0.000000 0.000000 -0.000000 0.000000 38.222048 -0.000000 0.000000 0.000000 -0.000000 0.000000 0.000000 0.000000 0.000000 0.000000
46.940763 71.948401 306.798435 0.512974 0.341164 -37.575052 -0.198533 -0.583197 37.572514 -0.000000 0.000000 0.000000 -0.000000 0.000000 0.000000 0.000000 0.000000 0.000000 -1.676896 -0.485724 0.578545 -1.357683 -0.852812 0.182474 -5.990332 -2.538502 3.346940 3.351012 1.002774 -3.379646 0.000000 0.000000 0.000000 0.000000 0.000000 0.000000 -0.000000 0.000000 0.000000 -4.185432 1.363198 -0.220937 0.200668 -17.311359 2.097436 7.383611 20.924391 -2.353507 0.000000 0.000000 0.000000 0.000000 0.000000 0.000000 -1.042742 -4.511259 38.359392 1.217426 1.587078 -1.184690 1.862583 1.006809 0.342834 0.000000 0.000000 0.000000 -2.160100 -3.007364 37.884981 6.659198 3.405147 -0.398477 -0.555981 1.568164 -5.245780 0.000000 0.000000 0.000000
49.359423 71.757265 305.089124 0.936744 0.702433 -36.820786 0.168089 0.229683 36.863942 0.005049 -0.019078 0.062384 -0.313062 -0.144242 -0.606206 0.000000 0.000000 0.000000 -4.572667 -1.799873 0.982778 -2.649400 -1.515162 0.373048 -11.103857 -5.315247 5.934116 6.434085 2.178317 -6.385639 0.000000 0.000000 0.000000 0.000000 0.000000 0.000000 -1.215516 -0.764137 -0.118499 -7.411824 2.501393 -0.308721 2.070482 -25.109070 2.533880 12.331708 35.260019 -3.174595 0.000000 0.000000 0.000000 0.000000 0.000000 0.000000 -2.011153 -7.789517 38.076059 1.703010 2.258485 -2.090529 3.661818 2.080742 0.639939 0.000000 0.000000 0.000000 -3.866595 -5.625978 37.246221 11.974568 6.310212 -0.945252 -0.915135 2.282431 -8.975005 0.000000 0.000000 0.000000
51.686733 71.601474 303.456562 1.272009 1.083822 -35.965996 0.224115 0.298475 36.020981 0.011809 -0.022507 0.085514 -0.392057 -0.404603 -0.771287 0.000000 0.000000 0.000000 -6.663260 -2.816905 1.423864 -3.904336 -2.000009 0.598644 -15.049885 -7.937397 7.643735 8.924090 3.363848 -8.770260 0.000000 0.000000 0.000000 0.000000 0.000000 0.000000 -1.643672 -1.166944 -0.167257 -9.614575 3.383034 -0.310771 3.750678 -29.519765 2.505853 13.754527 48.135503 -1.690071 0.000000 0.000000 0.000000 0.000000 0.000000 0.000000 -2.908734 -9.828379 37.408214 1.443135 2.014858 -2.718665 5.398758 3.220189 0.890096 0.000000 0.000000 0.000000 -5.129570 -7.862294 36.362556 15.832898 8.683438 -1.511566 -0.935103 2.665743 -11.525854 0.000000 0.000000 0.000000
53.922695 71.481028 301.900749 1.519407 1.485395 -35.015992 0.260326 0.337263 35.077182 0.021182 -0.022077 0.103242 -0.418842 -0.786972 -0.844279 0.000000 0.000000 0.000000 -8.598531 -3.902459 1.820792 -5.152481 -2.323059 0.885263 -17.817132 -10.173453 8.527431 10.717371 4.497392 -10.434418 0.000000 0.000000 0.000000 0.000000 0.000000 0.000000 -1.952506 -1.583993 -0.207626 -10.770544 3.996176 -0.265811 4.771271 -32.294094 2.167475 8.221879 57.146152 4.240504 0.000000 0.000000 0.000000 0.000000 0.000000 0.000000 -3.706624 -10.638745 36.395848 0.449115 0.856746 -3.105666 7.074897 4.423765 1.092293 0.000000 0.000000 0.000000 -5.948954 -9.736582 35.279855 18.155126 10.528853 -1.981786 -0.475774 3.049868 -13.150511 0.000000 0.000000 0.000000
56.067309 71.395929 300.421685 1.679492 1.907252 -33.974838 0.275510 0.346953 34.037229 0.033036 -0.017909 0.115576 -0.392757 -1.290020 -0.824980 0.000000 0.000000 0.000000 -10.361082 -5.047427 2.167721 -6.423870 -2.502135 1.257820 -19.536871 -11.948286 8.690440 11.853550 5.572303 -11.380045 0.000000 0.000000 0.000000 0.000000 0.000000 0.000000 -2.142266 -2.015587 -0.238459 -10.878072 4.339214 -0.199161 4.992553 -34.086418 1.491483 -2.748786 59.488915 13.202791 0.000000 0.000000 0.000000 0.000000 0.000000 0.000000 -4.346011 -10.228879 35.079516 -1.261669 -1.227753 -3.318138 8.908252 6.536955 1.958016 0.000000 0.000000 0.000000 -6.314841 -11.277604 34.034028 18.884054 11.862756 -2.259681 0.567566 3.638635 -14.024497 0.000000 0.000000 0.000000
58.518041 71.282224 298.864637 1.975496 2.533503 -33.039680 0.254565 0.310621 33.099490 0.041129 -0.008049 0.132601 -0.575728 -2.186579 -0.662267 0.000000 0.000000 0.000000 -12.479410 -6.488861 2.490285 -8.077293 -2.550952 1.932105 -21.325717 -14.070337 8.203434 13.914094 6.944809 -12.668455 0.000000 0.000000 0.000000 0.000000 0.000000 0.000000 -2.410414 -2.637404 -0.284799 -9.794097 3.661350 -0.266908 5.261951 -33.792698 -0.547179 -6.529995 43.372820 10.335394 0.000000 0.000000 0.000000 0.000000 0.000000 0.000000 -5.034858 -9.074832 33.660456 -3.870203 -4.458242 -3.609174 10.933815 8.405799 2.622532 0.000000 0.000000 0.000000 -6.524725 -13.403600 32.748719 17.572199 12.384336 -2.224502 4.674021 6.422813 -16.332238 0.000000 0.000000 0.000000
60.591550 71.262756 297.533842 2.058828 3.132810 -32.117215 0.201985 0.236560 32.166529 0.048782 0.002968 0.137097 -0.431100 -3.249415 -0.324991 0.000000 0.000000 0.000000 -14.009521 -7.924316 2.702528 -9.686067 -2.396185 2.722956 -21.990049 -15.519859 6.747417 13.093698 7.553388 -12.780192 0.000000 0.000000 0.000000 0.000000 0.000000 0.000000 -2.418243 -3.218831 -0.303336 -7.639996 2.732820 -0.284435 5.567475 -32.241000 -3.946601 -20.100219 42.583608 21.811793 0.000000 0.000000 0.000000 0.000000 0.000000 0.000000 -5.095507 -6.317190 32.083742 -7.412859 -9.020438 -3.952469 12.774499 10.500174 3.082071 0.000000 0.000000 0.000000 -6.096067 -14.572551 31.555135 14.663505 11.718155 -1.809076 5.689251 7.130940 -13.555186 0.000000 0.000000 0.000000
62.227928 71.257765 296.450519 1.833647 3.470008 -30.395907 0.136849 0.168100 30.433678 0.079702 0.027959 0.127610 -0.217052 -3.862312 -0.099779 0.000000 0.000000 0.000000 -14.928854 -8.963251 2.895706 -11.020522 -2.356643 3.363455 -21.478977 -15.940594 5.455988 12.238319 9.120319 -10.198327 0.000000 0.000000 0.000000 0.000000 0.000000 0.000000 -2.130330 -3.565792 -0.280563 -4.954814 2.951047 -0.034363 3.777527 -34.024698 -6.468957 -28.545970 42.655526 29.300255 0.000000 0.000000 0.000000 0.000000 0.000000 0.000000 -4.972834 -1.220753 29.446538 -11.779431 -14.972986 -4.555453 14.421633 12.218969 3.825230 0.000000 0.000000 0.000000 -5.061309 -14.602473 29.638794 10.876339 10.891072 -1.203326 10.198281 10.102594 -16.094992 0.000000 0.000000 0.000000
63.456909 71.439346 295.424240 1.396611 3.744022 -29.112016 0.047345 0.038670 29.135526 0.105048 0.035192 0.104809 0.519088 -4.336033 0.148057 0.000000 0.000000 0.000000 -15.155480 -9.864778 3.038031 -11.727630 -2.021979 3.852665 -18.980161 -14.955853 4.339564 9.830586 8.915185 -8.307198 0.000000 0.000000 0.000000 0.000000 0.000000 0.000000 -1.573381 -3.785363 -0.221184 -1.893583 4.208162 0.372495 0.767643 -37.642796 -8.782702 -32.696324 44.556996 34.242623 0.000000 0.000000 0.000000 0.000000 0.000000 0.000000 -3.474369 4.475331 27.194445 -15.804501 -20.723220 -5.018146 14.656785 13.515031 4.643081 0.000000 0.000000 0.000000 -2.780190 -14.290985 28.134136 5.929659 10.289113 -0.307517 12.397879 11.482349 -15.021213 0.000000 0.000000 0.000000
64.870744 71.684882 294.308626 0.995925 3.991275 -27.879468 0.101157 0.107794 27.905273 0.137939 0.031008 0.095807 0.979128 -4.789305 0.310249 0.000000 0.000000 0.000000 -15.640851 -10.884433 3.110686 -11.900619 -1.358094 4.282292 -15.997862 -14.032658 2.128569 7.776586 9.388412 -4.969578 0.000000 0.000000 0.000000 0.000000 0.000000 0.000000 0.340530 -4.940173 0.074966 -0.158910 7.637311 0.712438 -3.521262 -43.774243 -11.714302 -36.091717 45.836339 38.269383 0.000000 0.000000 0.000000 0.000000 0.000000 0.000000 -1.912934 8.824976 25.124582 -18.056650 -24.579751 -5.074583 13.935100 13.924065 5.518180 0.000000 0.000000 0.000000 -0.504153 -14.521582 26.604174 0.836943 11.573330 0.617368 9.770239 8.702635 -5.247994 0.000000 0.000000 0.000000
65.911864 72.020516 293.188288 0.464577 4.213591 -26.778464 0.139632 0.156044 26.807033 0.153407 0.038278 0.077286 1.540415 -5.462642 0.670366 0.000000 0.000000 0.000000 -15.660867 -12.021253 3.128256 -11.674095 -0.422996 4.581105 -12.357089 -13.080110 -0.927849 5.162766 10.399129 0.201826 0.000000 0.000000 0.000000 0.000000 0.000000 0.000000 1.961597 -5.193207 0.420928 2.432857 11.072339 0.883218 -10.474052 -48.976076 -13.076004 -33.569571 50.256579 37.297363 0.000000 0.000000 0.000000 0.000000 0.000000 0.000000 0.594405 12.399604 23.199571 -19.177225 -25.675237 -4.214783 12.093720 12.423380 6.427985 0.000000 0.000000 0.000000 2.236353 -14.608900 25.215323 -4.781441 13.683791 1.804500 9.765881 6.346268 0.939409 0.000000 0.000000 0.000000
66.865518 72.380137 291.993014 0.083278 4.464033 -25.961459 0.152858 0.105096 25.990014 0.172208 0.016599 0.062642 2.223825 -6.026256 1.004224 0.000000 0.000000 0.000000 -15.365329 -12.985684 3.081506 -11.256747 0.613288 4.803260 -9.245956 -12.273286 -3.209581 2.422186 11.431309 5.344099 0.000000 0.000000 0.000000 0.000000 0.000000 0.000000 3.422286 -5.074220 0.778573 5.030291 14.820619 0.857184 -18.247606 -49.888115 -12.089391 -22.496526 53.686193 27.604163 0.000000 0.000000 0.000000 0.000000 0.000000 0.000000 3.110960 14.607421 21.691417 -18.987735 -24.134045 -2.686778 9.581131 9.386431 7.208552 0.000000 0.000000 0.000000 4.734537 -15.072441 24.118586 -10.138235 17.675407 3.209426 8.908787 -2.011339 8.542423 0.000000 0.000000 0.000000
68.037584 72.695060 290.857506 -0.183383 4.551466 -25.609602 0.190137 0.116159 25.642002 0.206117 0.003627 0.056691 2.573904 -6.609682 1.406968 0.000000 0.000000 0.000000 -15.346502 -13.907094 3.054672 -10.794027 1.482072 4.824855 -6.418276 -11.214364 -4.373927 -1.014185 10.631044 8.198117 0.000000 0.000000 0.000000 0.000000 0.000000 0.000000 4.521713 -4.635993 1.085648 7.212056 18.889983 0.675454 -25.369942 -48.542640 -10.583667 -6.631260 55.297549 14.179560 0.000000 0.000000 0.000000 0.000000 0.000000 0.000000 4.703091 16.606431 20.714487 -18.072623 -21.996412 -1.151896 7.058819 5.766515 7.678377 0.000000 0.000000 0.000000 6.090608 -15.469568 23.607886 -13.794561 19.899549 4.297834 8.436884 -6.453952 14.774502 0.000000 0.000000 0.000000
